<?xml version="1.0" standalone="no"?>
<!DOCTYPE svg PUBLIC "-//W3C//DTD SVG 20010904//EN"
 "http://www.w3.org/TR/2001/REC-SVG-20010904/DTD/svg10.dtd">
<svg version="1.0" xmlns="http://www.w3.org/2000/svg"
 width="400.000000pt" height="400.000000pt" viewBox="0 0 400.000000 400.000000"
 preserveAspectRatio="xMidYMid meet">
<metadata>
Created by potrace 1.11, written by Peter Selinger 2001-2013
</metadata>
<g transform="translate(0.000000,400.000000) scale(0.100000,-0.100000)"
fill="#000000" stroke="none">
<path d="M1230 3022 c0 -7 133 -361 149 -397 5 -11 58 -147 117 -302 59 -156
110 -283 114 -283 4 0 49 51 101 112 52 62 104 124 116 138 12 14 31 36 43 50
12 14 38 45 58 69 42 50 86 103 154 182 25 29 61 73 80 95 18 23 57 69 86 103
36 41 49 62 40 65 -15 6 -656 111 -733 122 -27 3 -52 8 -55 9 -3 2 -26 6 -50
9 -25 4 -56 9 -70 11 -113 21 -150 25 -150 17z m370 -216 c19 -3 53 -8 75 -11
22 -4 78 -13 125 -21 47 -8 101 -17 120 -20 19 -4 42 -8 50 -9 8 -2 17 -4 19
-4 4 -1 -58 -79 -129 -161 -12 -14 -61 -71 -108 -127 -47 -57 -89 -100 -93
-95 -6 6 -179 457 -179 466 0 2 19 0 43 -4 23 -5 58 -11 77 -14z"/>
<path d="M2314 1769 c-175 -144 -341 -280 -368 -303 -27 -22 -56 -46 -64 -52
-13 -10 -8 -20 38 -73 l53 -61 46 37 c25 21 73 60 107 88 33 27 80 66 104 85
24 19 62 51 85 70 23 19 61 51 85 70 107 86 278 227 304 251 32 30 33 29 -35
107 l-36 42 -319 -261z"/>
<path d="M3285 1948 c-33 -17 -62 -32 -63 -33 -4 -4 156 -315 169 -330 25 -26
2 -43 -171 -129 -99 -49 -180 -90 -180 -92 0 -16 67 -134 76 -134 6 0 91 40
189 89 l178 89 39 -76 c109 -209 140 -268 148 -276 7 -7 106 33 136 56 9 6 6
20 -10 51 -12 23 -55 103 -94 178 -55 104 -69 139 -60 146 7 5 90 47 185 93
l172 84 -13 31 c-8 16 -24 49 -38 72 l-24 42 -179 -90 c-99 -49 -183 -88 -188
-86 -6 2 -49 79 -98 172 -48 94 -94 171 -101 172 -7 1 -40 -12 -73 -29z"/>
<path d="M353 1904 c-104 -28 -221 -115 -281 -209 -95 -149 -92 -365 8 -511
71 -102 191 -182 310 -204 232 -44 467 81 547 290 30 77 35 104 34 185 -2 194
-129 369 -319 438 -72 26 -224 31 -299 11z m272 -175 c141 -67 215 -228 170
-371 -27 -88 -78 -147 -164 -190 -69 -34 -80 -37 -150 -35 -132 5 -237 73
-289 187 -77 170 22 375 208 430 51 16 172 4 225 -21z"/>
</g>
</svg>
